<svg xmlns="http://www.w3.org/2000/svg" version="1.1" xmlns:xlink="http://www.w3.org/1999/xlink" xmlns:svgjs="http://svgjs.dev/svgjs" width="1920" height="1080" preserveAspectRatio="none" viewBox="0 0 1920 1080"><g mask="url(&quot;#SvgjsMask1020&quot;)" fill="none"><rect width="1920" height="1080" x="0" y="0" fill="rgba(212, 220, 229, 1)"></rect><path d="M0,832.598C158.122,835.539,306.853,769.948,441.382,686.804C577.744,602.527,706.542,498.885,774.709,353.798C843.247,207.923,850.192,40.395,819.423,-117.815C789.595,-271.188,712.906,-411.321,604.1,-523.456C499.139,-631.628,363.464,-703.509,216.917,-738.752C75.131,-772.85,-68.194,-747.708,-211.278,-719.547C-367.763,-688.748,-548.26,-686.075,-654.61,-567.223C-761.178,-448.127,-766.319,-268.514,-757.657,-108.935C-750.012,31.916,-663.256,147.905,-608.732,277.999C-552.057,413.225,-539.339,571.832,-430.954,670.578C-315.163,776.072,-156.614,829.685,0,832.598" fill="#9dafc4"></path><path d="M1920 1870.797C2066.047 1855.531 2205.238 1790.6 2311.635 1689.395 2408.199 1597.5430000000001 2419.17 1454.213 2481.691 1336.516 2549.523 1208.821 2715.607 1111.688 2694.504 968.643 2673.386 825.501 2480.7799999999997 785.515 2384.471 677.533 2290.146 571.7760000000001 2265.498 401.41999999999996 2136.424 342.92600000000004 2004.694 283.22900000000004 1851.141 332.145 1712.395 372.96400000000006 1573.7069999999999 413.76599999999996 1437.723 470.90200000000004 1339.833 577.2819999999999 1240.307 685.44 1156.394 824.153 1162.065 971.025 1167.5230000000001 1112.372 1318.204 1199.619 1368.96 1331.651 1424.783 1476.863 1360.761 1668.363 1471.961 1777.162 1583.271 1886.0700000000002 1765.117 1886.9859999999999 1920 1870.797" fill="#ffffff"></path></g><defs><mask id="SvgjsMask1020"><rect width="1920" height="1080" fill="#ffffff"></rect></mask></defs></svg>